# xmcd
#
# Track frame offsets: 
#        150
#        10520
#        28032
#        46077
#        69785
#
# Disc length: 1303 seconds
#
# Revision: 24
# Processed by: cddbd v1.5.2PL0 Copyright (c) Steve Scherf et al.
# Submitted via: ExactAudioCopy v0.99pb5
#
DISCID=2b051505
DTITLE=Janis Joplin - Rare Pearls EP
DYEAR=1999
DGENRE=Rock
TTITLE0=It's A Deal (Studio Outtake)
TTITLE1=Easy Once You Know How (Studio Outtake)
TTITLE2=Maybe (Live)
TTITLE3=Raise Your Hand (Live)
TTITLE4=Bo Diddley (Live)
EXTD=YEAR: 1999
EXTT0=studio outtake
EXTT1=studio outtake
EXTT2=live
EXTT3=live
EXTT4=live
PLAYORDER=
